<svg width="90" height="29" viewBox="0 0 90 29" fill="none" xmlns="http://www.w3.org/2000/svg">
<g clip-path="url(#clip0_538_6444)">
<path fill-rule="evenodd" clip-rule="evenodd" d="M55.8342 22.0438C50.6041 26.0181 43.0235 28.1385 36.4967 28.1385C27.3451 28.1385 19.1063 24.6489 12.8733 18.845C12.3836 18.3886 12.8224 17.7666 13.4101 18.1221C20.1366 22.1569 28.4538 24.5843 37.0452 24.5843C42.8394 24.5843 49.2134 23.3484 55.0742 20.7837C55.9595 20.3959 56.7 21.3814 55.8342 22.0438Z" fill="#FF9900"/>
<path fill-rule="evenodd" clip-rule="evenodd" d="M58.0088 19.4791C57.3428 18.5987 53.5897 19.0631 51.9051 19.2691C51.3919 19.3337 51.3135 18.8733 51.7758 18.5421C54.765 16.3732 59.6698 16.9993 60.2418 17.7263C60.8138 18.4573 60.0929 23.5261 57.284 25.9454C56.8531 26.317 56.4417 26.1191 56.6337 25.6263C57.2644 24.0027 58.6787 20.3637 58.0088 19.4791Z" fill="#FF9900"/>
<path fill-rule="evenodd" clip-rule="evenodd" d="M52.0225 3.23072V1.12243C52.0225 0.803355 52.2576 0.589294 52.5396 0.589294H61.6952C61.989 0.589294 62.2241 0.807394 62.2241 1.12243V2.9278C62.2201 3.23072 61.9733 3.62653 61.5345 4.25255L56.7903 11.2358C58.5532 11.1913 60.4141 11.462 62.0125 12.3909C62.3729 12.6009 62.4709 12.9079 62.4983 13.2108V15.4604C62.4983 15.7674 62.1692 16.1269 61.8245 15.9411C59.0077 14.4184 55.2663 14.2528 52.1518 15.9572C51.8345 16.1349 51.5015 15.7795 51.5015 15.4726V13.336C51.5015 12.9927 51.5054 12.407 51.8384 11.886L57.3348 3.75981H52.5514C52.2576 3.75981 52.0225 3.54575 52.0225 3.23072Z" fill="black"/>
<path fill-rule="evenodd" clip-rule="evenodd" d="M18.6245 16.3853H15.839C15.5726 16.3651 15.3611 16.1592 15.3415 15.8966V1.15878C15.3415 0.863946 15.5805 0.629689 15.8782 0.629689H18.4756C18.7459 0.641798 18.9614 0.855866 18.981 1.12243V3.04898H19.0319C19.7097 1.18705 20.9829 0.318695 22.6988 0.318695C24.4422 0.318695 25.5313 1.18705 26.3148 3.04898C26.9886 1.18705 28.5204 0.318695 30.1619 0.318695C31.3294 0.318695 32.6065 0.815477 33.3862 1.93021C34.2676 3.17014 34.0874 4.97148 34.0874 6.55068L34.0835 15.8522C34.0835 16.147 33.8445 16.3853 33.5468 16.3853H30.7653C30.4871 16.3651 30.2638 16.1349 30.2638 15.8522V8.04102C30.2638 7.41904 30.3186 5.86811 30.1854 5.27843C29.9778 4.28891 29.3549 4.01023 28.5479 4.01023C27.874 4.01023 27.1689 4.4747 26.8829 5.21785C26.5969 5.96101 26.6243 7.20498 26.6243 8.04102V15.8522C26.6243 16.147 26.3853 16.3853 26.0876 16.3853H23.3061C23.024 16.3651 22.8046 16.1349 22.8046 15.8522L22.8007 8.04102C22.8007 6.3972 23.0632 3.97792 21.0848 3.97792C19.0828 3.97792 19.1612 6.33662 19.1612 8.04102V15.8522C19.1612 16.147 18.9222 16.3853 18.6245 16.3853" fill="black"/>
<path fill-rule="evenodd" clip-rule="evenodd" d="M70.1061 0.318695C74.2393 0.318695 76.4762 3.97792 76.4762 8.6307C76.4762 13.126 74.0042 16.6923 70.1061 16.6923C66.0474 16.6923 63.8379 13.0331 63.8379 8.47319C63.8379 3.88502 66.0749 0.318695 70.1061 0.318695ZM70.1296 3.32766C68.0768 3.32766 67.9475 6.21142 67.9475 8.00872C67.9475 9.81006 67.9201 13.6551 70.1061 13.6551C72.2648 13.6551 72.3666 10.5532 72.3666 8.66301C72.3666 7.41904 72.3157 5.93274 71.9513 4.75338C71.6379 3.72751 71.015 3.32766 70.1296 3.32766Z" fill="black"/>
<path fill-rule="evenodd" clip-rule="evenodd" d="M81.8356 16.3853H79.062C78.7838 16.3651 78.5605 16.1349 78.5605 15.8522L78.5566 1.11031C78.5801 0.83971 78.8112 0.629689 79.0933 0.629689H81.675C81.9179 0.641798 82.1177 0.811439 82.1726 1.04165V3.29535H82.2235C83.0031 1.27995 84.0961 0.318695 86.0197 0.318695C87.2694 0.318695 88.4878 0.783166 89.2713 2.05541C90 3.23476 90 5.21785 90 6.64357V15.9209C89.9687 16.1794 89.7375 16.3853 89.4633 16.3853H86.67C86.4154 16.3651 86.2038 16.1713 86.1764 15.9209V7.91582C86.1764 6.30431 86.3566 3.9456 84.433 3.9456C83.7553 3.9456 83.1324 4.41412 82.8229 5.12496C82.4311 6.02563 82.3802 6.92226 82.3802 7.91582V15.8522C82.3763 16.147 82.1334 16.3853 81.8356 16.3853" fill="black"/>
<path fill-rule="evenodd" clip-rule="evenodd" d="M44.7239 9.34556C44.7239 10.4643 44.7513 11.3973 44.2028 12.3909C43.7601 13.1987 43.055 13.6954 42.2754 13.6954C41.2058 13.6954 40.579 12.8553 40.579 11.6154C40.579 9.16785 42.7063 8.72357 44.7239 8.72357V9.34556ZM47.5328 16.3449C47.3487 16.5146 47.0823 16.5267 46.8747 16.4136C45.9501 15.622 45.7816 15.2544 45.2763 14.4992C43.7484 16.1066 42.6632 16.5873 40.6848 16.5873C38.3381 16.5873 36.5164 15.0969 36.5164 12.1122C36.5164 9.78176 37.7387 8.19448 39.486 7.41902C40.9982 6.7324 43.1098 6.61124 44.7239 6.42141V6.04984C44.7239 5.36726 44.7748 4.55949 44.383 3.96982C44.0461 3.44072 43.3958 3.22262 42.8199 3.22262C41.7582 3.22262 40.8141 3.78402 40.5829 4.94722C40.5359 5.20571 40.3518 5.46016 40.0971 5.47228L37.3979 5.1734C37.1707 5.12089 36.916 4.93106 36.9826 4.57161C37.6016 1.19511 40.5633 0.177307 43.2117 0.177307C44.5672 0.177307 46.338 0.548885 47.4075 1.60707C48.763 2.91163 48.6337 4.65238 48.6337 6.54662V11.0217C48.6337 12.3666 49.1743 12.9563 49.6836 13.6833C49.8599 13.9418 49.8991 14.2528 49.6719 14.4467C49.1038 14.9354 48.093 15.8441 47.5367 16.353L47.5328 16.3449" fill="black"/>
<path fill-rule="evenodd" clip-rule="evenodd" d="M8.20746 9.34577C8.20746 10.4645 8.23488 11.3975 7.68642 12.3911C7.24372 13.1989 6.54246 13.6956 5.75893 13.6956C4.68942 13.6956 4.06651 12.8556 4.06651 11.6156C4.06651 9.16806 6.19379 8.72378 8.20746 8.72378V9.34577ZM11.0164 16.3451C10.8323 16.5148 10.5659 16.5269 10.3582 16.4138C9.43368 15.6222 9.26914 15.2546 8.75985 14.4994C7.23197 16.1068 6.1507 16.5875 4.16837 16.5875C1.82562 16.5875 0 15.0971 0 12.1124C0 9.78197 1.22622 8.19469 2.96957 7.41923C4.48178 6.73262 6.59339 6.61145 8.20746 6.42163V6.05005C8.20746 5.36748 8.25839 4.5597 7.87054 3.97003C7.52971 3.44093 6.87938 3.22283 6.3074 3.22283C5.24572 3.22283 4.29765 3.78424 4.06651 4.94743C4.0195 5.20592 3.83537 5.46037 3.58464 5.47249L0.88147 5.17361C0.654246 5.12111 0.403516 4.93128 0.466199 4.57182C1.0891 1.19532 4.04692 0.177521 6.69525 0.177521C8.05075 0.177521 9.82153 0.549098 10.891 1.60728C12.2465 2.91184 12.1173 4.6526 12.1173 6.54683V11.0219C12.1173 12.3669 12.6579 12.9565 13.1672 13.6835C13.3474 13.942 13.3866 14.253 13.1594 14.4469C12.5913 14.9356 11.5806 15.8443 11.0242 16.3532L11.0164 16.3451" fill="black"/>
</g>
<defs>
<clipPath id="clip0_538_6444">
<rect width="90" height="27.9612" fill="white" transform="translate(0 0.177307)"/>
</clipPath>
</defs>
</svg>
