<svg width="90" height="28" viewBox="0 0 90 28" fill="none" xmlns="http://www.w3.org/2000/svg">
<g clip-path="url(#clip0_538_6459)">
<path d="M66.9275 26.8498L74.4331 18.5369L66.9275 10.2228H74.8467L78.5641 14.2613L82.1437 10.2228H89.7867L82.3167 18.5026L89.8892 26.8498H81.9375L78.2538 22.7782L74.6048 26.8498H66.9275Z" fill="#FF6600"/>
<path d="M66.9274 6.49568H58.4267V10.2228H66.9274V15.84H58.4267V20.9958H66.9274V26.8498H52.1787V0.657898H66.9274V6.49568Z" fill="#FF6600"/>
<path d="M45.9571 0.657898V11.3769H45.8887C44.5113 9.8163 42.7903 9.27398 40.7935 9.27398C36.7032 9.27398 33.622 12.0149 32.5405 15.6387C31.3071 11.6457 28.1262 9.19915 23.4094 9.19915C19.5789 9.19915 16.5541 10.894 14.9756 13.6557V10.2232H7.05796V6.49645H15.6983V0.657898H0V26.8502H7.05796V15.84H14.0928C13.8831 16.6488 13.7712 17.5148 13.7712 18.4285C13.7712 23.8922 18.0055 27.7258 23.4094 27.7258C27.9536 27.7258 30.9483 25.6229 32.5323 21.7889H26.4839C25.6657 22.9406 25.045 23.2827 23.4094 23.2827C21.5127 23.2827 19.8775 21.6516 19.8775 19.718H32.1934C32.7275 24.0576 36.1569 27.8002 40.8631 27.8002C42.8932 27.8002 44.7519 26.8159 45.8887 25.1538H45.9571V26.8494H52.1789V0.657898H45.9571ZM20.0739 15.9183C20.4664 14.2547 21.7753 13.1674 23.4094 13.1674C25.2082 13.1674 26.4506 14.2212 26.7773 15.9183C26.9151 15.9183 20.0739 15.9183 20.0739 15.9183ZM42.1814 22.8619C39.888 22.8619 38.4629 20.7555 38.4629 18.5562C38.4629 16.2053 39.7025 13.9446 42.1814 13.9446C44.7519 13.9446 45.776 16.2053 45.776 18.5562C45.7756 20.7856 44.6905 22.8619 42.1814 22.8619Z" fill="#652C8F"/>
</g>
<defs>
<clipPath id="clip0_538_6459">
<rect width="90" height="27" fill="white" transform="translate(0 0.657898)"/>
</clipPath>
</defs>
</svg>
