<svg width="90" height="31" viewBox="0 0 90 31" fill="none" xmlns="http://www.w3.org/2000/svg">
<path d="M38.2996 15.5467C38.2996 19.7547 34.9941 22.8555 30.9374 22.8555C26.8808 22.8555 23.5753 19.7547 23.5753 15.5467C23.5753 11.3091 26.8808 8.23798 30.9374 8.23798C34.9941 8.23798 38.2996 11.3091 38.2996 15.5467ZM35.0768 15.5467C35.0768 12.9172 33.161 11.118 30.9374 11.118C28.7139 11.118 26.7981 12.9172 26.7981 15.5467C26.7981 18.1499 28.7139 19.9755 30.9374 19.9755C33.161 19.9755 35.0768 18.1466 35.0768 15.5467Z" fill="#EA4335"/>
<path d="M54.1819 15.5467C54.1819 19.7547 50.8764 22.8555 46.8198 22.8555C42.7632 22.8555 39.4576 19.7547 39.4576 15.5467C39.4576 11.3124 42.7632 8.23798 46.8198 8.23798C50.8764 8.23798 54.1819 11.3091 54.1819 15.5467ZM50.9591 15.5467C50.9591 12.9172 49.0433 11.118 46.8198 11.118C44.5962 11.118 42.6804 12.9172 42.6804 15.5467C42.6804 18.1499 44.5962 19.9755 46.8198 19.9755C49.0433 19.9755 50.9591 18.1466 50.9591 15.5467Z" fill="#FBBC05"/>
<path d="M69.4025 8.67953V21.801C69.4025 27.1985 66.2062 29.403 62.4275 29.403C58.8705 29.403 56.7297 27.0338 55.9223 25.0962L58.7282 23.933C59.2279 25.1226 60.4521 26.5263 62.4242 26.5263C64.8429 26.5263 66.3418 25.0402 66.3418 22.2426V21.1914H66.2293C65.508 22.0778 64.1183 22.8522 62.3646 22.8522C58.6951 22.8522 55.3334 19.669 55.3334 15.5731C55.3334 11.4475 58.6951 8.23798 62.3646 8.23798C64.115 8.23798 65.5047 9.01235 66.2293 9.87239H66.3418V8.68283H69.4025V8.67953ZM66.5702 15.5731C66.5702 12.9995 64.8463 11.118 62.6525 11.118C60.429 11.118 58.5661 12.9995 58.5661 15.5731C58.5661 18.1203 60.429 19.9755 62.6525 19.9755C64.8463 19.9755 66.5702 18.1203 66.5702 15.5731Z" fill="#4285F4"/>
<path d="M74.4486 0.988556V22.4073H71.3052V0.988556H74.4486Z" fill="#34A853"/>
<path d="M86.6978 17.9522L89.1993 19.613C88.392 20.8026 86.4464 22.8522 83.0846 22.8522C78.9155 22.8522 75.8019 19.6426 75.8019 15.5434C75.8019 11.1971 78.942 8.23468 82.7239 8.23468C86.5324 8.23468 88.3953 11.2531 89.0041 12.8842L89.3383 13.7146L79.5276 17.7611C80.2787 19.2274 81.4467 19.9755 83.0846 19.9755C84.7258 19.9755 85.864 19.1714 86.6978 17.9522ZM78.9982 15.3226L85.5563 12.6107C85.1956 11.6979 84.1103 11.062 82.8331 11.062C81.1953 11.062 78.9155 12.502 78.9982 15.3226Z" fill="#EA4335"/>
<path d="M11.677 13.6454V10.5446H22.1693C22.2718 11.085 22.3248 11.7243 22.3248 12.4163C22.3248 14.7427 21.6862 17.6194 19.6281 19.669C17.6262 21.745 15.0685 22.8522 11.6803 22.8522C5.40014 22.8522 0.119263 17.7578 0.119263 11.5035C0.119263 5.24925 5.40014 0.154877 11.6803 0.154877C15.1546 0.154877 17.6296 1.5125 19.4891 3.28202L17.2921 5.47003C15.9586 4.22444 14.152 3.25566 11.677 3.25566C7.09095 3.25566 3.50419 6.93639 3.50419 11.5035C3.50419 16.0707 7.09095 19.7514 11.677 19.7514C14.6516 19.7514 16.3457 18.5618 17.431 17.481C18.3112 16.6045 18.8902 15.3523 19.1185 13.6421L11.677 13.6454Z" fill="#4285F4"/>
</svg>
