<svg width="90" height="27" viewBox="0 0 90 27" fill="none" xmlns="http://www.w3.org/2000/svg">
<path d="M9.74652 4.55722V11.8105H3.13764V4.55722H0V21.8716H3.13764V14.8538H9.74652V21.8716H12.8842V4.55722H9.74652Z" fill="#33475B"/>
<path d="M22.9258 16.2747C22.9258 16.9686 22.6523 17.6341 22.1655 18.1247C21.6787 18.6154 21.0185 18.891 20.3301 18.891C19.6416 18.891 18.9814 18.6154 18.4946 18.1247C18.0078 17.6341 17.7343 16.9686 17.7343 16.2747V8.85867H14.7581V16.2747C14.7581 17.7628 15.3446 19.1899 16.3885 20.2421C17.4325 21.2944 18.8483 21.8855 20.3247 21.8855C21.801 21.8855 23.2169 21.2944 24.2609 20.2421C25.3048 19.1899 25.8913 17.7628 25.8913 16.2747V8.85867H22.9258V16.2747Z" fill="#33475B"/>
<path d="M44.9771 9.6226C44.9771 8.10252 45.9748 7.62062 47.0678 7.62062C47.9487 7.62062 49.1124 8.29621 49.8734 9.11591L51.8227 6.80093C50.8496 5.47454 48.8757 4.55722 47.26 4.55722C44.0316 4.55722 41.6965 6.46313 41.6965 9.6226C41.6965 15.4844 48.805 13.625 48.805 16.9053C48.805 17.9172 47.8303 18.8113 46.7142 18.8113C44.954 18.8113 44.3837 17.9435 43.5751 17.0262L41.4121 19.2932C42.7956 21.0054 44.5021 21.8747 46.5467 21.8747C49.6136 21.8747 52.081 19.9455 52.081 16.9301C52.081 10.4222 44.9725 12.4443 44.9725 9.6226" fill="#33475B"/>
<path d="M88.953 19.1057C87.1944 19.1057 86.6947 18.3386 86.6947 17.1641V11.9655H89.4281V9.33129H86.6947V5.85571L83.677 7.22084V17.8103C83.677 20.5188 85.531 21.8839 88.0737 21.8839C88.4725 21.8913 88.871 21.8591 89.2636 21.7879L89.9999 19.0561C89.6679 19.0793 89.2866 19.1026 88.953 19.1026" fill="#33475B"/>
<path d="M34.2542 8.94546C32.78 8.94546 31.7515 9.37623 30.7569 10.3602V4.66104H27.776V15.2241C27.776 19.1785 30.6124 21.8871 33.7992 21.8871C37.335 21.8871 40.445 19.1305 40.445 15.4178C40.445 11.7516 37.5825 8.94701 34.2542 8.94701V8.94546ZM34.2358 18.8639C33.5669 18.8639 32.913 18.664 32.3568 18.2894C31.8006 17.9149 31.3671 17.3824 31.1112 16.7595C30.8552 16.1366 30.7882 15.4512 30.9187 14.7899C31.0492 14.1287 31.3713 13.5213 31.8443 13.0445C32.3173 12.5678 32.9199 12.2431 33.576 12.1116C34.232 11.98 34.9121 12.0475 35.5301 12.3055C36.148 12.5636 36.6763 13.0005 37.0479 13.5611C37.4195 14.1217 37.6179 14.7808 37.6179 15.455C37.6179 16.3591 37.2615 17.2262 36.6273 17.8655C35.993 18.5048 35.1328 18.8639 34.2358 18.8639Z" fill="#33475B"/>
<path d="M66.6205 15.2598C66.6205 11.5409 63.5167 8.79053 59.9748 8.79053C56.788 8.79053 53.9516 11.4991 53.9516 15.4535V26.0227H56.9325V20.3159C57.9256 21.2982 58.9555 21.7306 60.4283 21.7306C63.7565 21.7306 66.619 18.9275 66.619 15.2598H66.6205ZM63.7981 15.2226C63.7981 15.8968 63.5997 16.5559 63.2281 17.1165C62.8565 17.6771 62.3282 18.114 61.7103 18.372C61.0923 18.63 60.4122 18.6976 59.7562 18.566C59.1001 18.4345 58.4975 18.1098 58.0245 17.6331C57.5515 17.1563 57.2294 16.5489 57.0989 15.8876C56.9684 15.2264 57.0354 14.5409 57.2914 13.918C57.5473 13.2951 57.9808 12.7627 58.537 12.3881C59.0932 12.0136 59.7471 11.8136 60.416 11.8136C61.313 11.8136 62.1732 12.1728 62.8075 12.8121C63.4417 13.4514 63.7981 14.3185 63.7981 15.2226Z" fill="#33475B"/>
<path d="M76.2504 8.64488V5.62641C76.6462 5.44003 76.9812 5.14417 77.2167 4.77329C77.4521 4.40241 77.5781 3.97175 77.5802 3.53146V3.46173C77.5802 2.8453 77.3372 2.25411 76.9048 1.81822C76.4723 1.38233 75.8858 1.13745 75.2742 1.13745H75.205C74.5935 1.13745 74.0069 1.38233 73.5745 1.81822C73.142 2.25411 72.8991 2.8453 72.8991 3.46173V3.53146C72.9011 3.97175 73.0272 4.40241 73.2626 4.77329C73.498 5.14417 73.8331 5.44003 74.2288 5.62641V8.64488C73.0914 8.82027 72.0201 9.29549 71.1235 10.0224L62.9112 3.57485C62.9693 3.36223 63.0003 3.14302 63.0034 2.9225C63.0044 2.40451 62.8528 1.89788 62.568 1.46669C62.2833 1.03551 61.878 0.69914 61.4035 0.500135C60.9291 0.301129 60.4067 0.248426 59.9025 0.348692C59.3983 0.448958 58.935 0.697689 58.571 1.06342C58.2071 1.42916 57.959 1.89546 57.858 2.40336C57.757 2.91126 57.8078 3.43793 58.0038 3.91676C58.1998 4.39559 58.5324 4.80506 58.9593 5.09338C59.3862 5.3817 59.8884 5.53593 60.4023 5.53654C60.8517 5.53452 61.2927 5.41377 61.6814 5.18635L69.7691 11.5285C69.0424 12.6349 68.6632 13.9362 68.6811 15.2629C68.6989 16.5896 69.1129 17.8801 69.869 18.9662L67.4094 21.4455C67.2104 21.3814 67.0032 21.3475 66.7944 21.3447C66.3725 21.345 65.9602 21.4714 65.6096 21.7079C65.2589 21.9443 64.9856 22.2802 64.8243 22.6731C64.663 23.0661 64.6209 23.4984 64.7033 23.9154C64.7857 24.3325 64.9888 24.7156 65.2872 25.0163C65.5855 25.317 65.9656 25.5218 66.3793 25.6048C66.7931 25.6878 67.222 25.6454 67.6118 25.4828C68.0017 25.3202 68.3349 25.0448 68.5695 24.6913C68.8041 24.3379 68.9294 23.9223 68.9298 23.497C68.9271 23.2866 68.8934 23.0777 68.8298 22.8772L71.2634 20.4243C72.0569 21.0398 72.9797 21.4641 73.961 21.6646C74.9423 21.8652 75.9561 21.8367 76.9248 21.5814C77.8936 21.326 78.7914 20.8506 79.5497 20.1915C80.308 19.5324 80.9065 18.7071 81.2995 17.7788C81.6925 16.8506 81.8695 15.844 81.817 14.8361C81.7644 13.8283 81.4837 12.8459 80.9964 11.9643C80.509 11.0827 79.828 10.3252 79.0053 9.7498C78.1827 9.17444 77.2403 8.79648 76.2504 8.64488ZM75.2419 18.5711C74.5763 18.5705 73.9257 18.371 73.3725 17.9978C72.8193 17.6246 72.3882 17.0945 72.1338 16.4745C71.8795 15.8544 71.8131 15.1723 71.9433 14.5143C72.0734 13.8563 72.3941 13.2519 72.8649 12.7776C73.3357 12.3032 73.9355 11.9802 74.5884 11.8494C75.2413 11.7185 75.918 11.7857 76.533 12.0424C77.1481 12.2991 77.6738 12.7338 78.0438 13.2915C78.4138 13.8493 78.6114 14.5051 78.6117 15.1761C78.6117 16.0761 78.257 16.9392 77.6256 17.5756C76.9942 18.212 76.1379 18.5696 75.245 18.5696" fill="#FF7A59"/>
</svg>
