<svg width="82" height="83" viewBox="0 0 82 83" fill="none" xmlns="http://www.w3.org/2000/svg">
<path d="M0 40.3158C0 21.4596 0 12.0315 5.85786 6.17366C11.7157 0.315796 21.1438 0.315796 40 0.315796H42C60.8562 0.315796 70.2843 0.315796 76.1421 6.17366C82 12.0315 82 21.4596 82 40.3158V42.3158C82 61.172 82 70.6001 76.1421 76.4579C70.2843 82.3158 60.8562 82.3158 42 82.3158H40C21.1438 82.3158 11.7157 82.3158 5.85786 76.4579C0 70.6001 0 61.172 0 42.3158V40.3158Z" fill="#FF6250" fill-opacity="0.2"/>
<path opacity="0.2" d="M31.4351 56.1306C31.313 56.2547 31.1674 56.3531 31.0069 56.4204C30.8463 56.4876 30.674 56.5222 30.5 56.5222C30.3259 56.5222 30.1536 56.4876 29.9931 56.4204C29.8325 56.3531 29.6869 56.2547 29.5648 56.1306L26.1851 52.751C26.0611 52.6288 25.9626 52.4833 25.8954 52.3227C25.8282 52.1622 25.7936 51.9898 25.7936 51.8158C25.7936 51.6417 25.8282 51.4694 25.8954 51.3089C25.9626 51.1483 26.0611 51.0028 26.1851 50.8806L43.625 33.4408L48.875 38.6908L31.4351 56.1306Z" fill="#FF6250"/>
<path d="M55.4375 41.3158V49.1908" stroke="#FF6250" stroke-width="2.375" stroke-linecap="round" stroke-linejoin="round"/>
<path d="M51.5 45.2533H59.375" stroke="#FF6250" stroke-width="2.375" stroke-linecap="round" stroke-linejoin="round"/>
<path d="M33.7812 26.8783V33.4408" stroke="#FF6250" stroke-width="2.375" stroke-linecap="round" stroke-linejoin="round"/>
<path d="M30.5 30.1595H37.0625" stroke="#FF6250" stroke-width="2.375" stroke-linecap="round" stroke-linejoin="round"/>
<path d="M47.5625 50.5033V55.7533" stroke="#FF6250" stroke-width="2.375" stroke-linecap="round" stroke-linejoin="round"/>
<path d="M44.9375 53.1283H50.1875" stroke="#FF6250" stroke-width="2.375" stroke-linecap="round" stroke-linejoin="round"/>
<path d="M50.5857 26.4898L26.1888 50.8866C25.6763 51.3992 25.6763 52.2302 26.1888 52.7428L29.5821 56.1361C30.0947 56.6486 30.9257 56.6486 31.4383 56.1361L55.8351 31.7392C56.3477 31.2267 56.3477 30.3956 55.8351 29.8831L52.4418 26.4898C51.9293 25.9772 51.0982 25.9772 50.5857 26.4898Z" stroke="#FF6250" stroke-width="2.375" stroke-linecap="round" stroke-linejoin="round"/>
<path d="M43.625 33.4408L48.875 38.6908" stroke="#FF6250" stroke-width="2.375" stroke-linecap="round" stroke-linejoin="round"/>
</svg>
