<svg width="82" height="83" viewBox="0 0 82 83" fill="none" xmlns="http://www.w3.org/2000/svg">
<path d="M0 40.3158C0 21.4596 0 12.0315 5.85786 6.17366C11.7157 0.315796 21.1438 0.315796 40 0.315796H42C60.8562 0.315796 70.2843 0.315796 76.1421 6.17366C82 12.0315 82 21.4596 82 40.3158V42.3158C82 61.172 82 70.6001 76.1421 76.4579C70.2843 82.3158 60.8562 82.3158 42 82.3158H40C21.1438 82.3158 11.7157 82.3158 5.85786 76.4579C0 70.6001 0 61.172 0 42.3158V40.3158Z" fill="#009379" fill-opacity="0.2"/>
<path opacity="0.2" d="M54.125 26.8783H48.875C48.1501 26.8783 47.5625 27.4659 47.5625 28.1908V33.4408C47.5625 34.1657 48.1501 34.7533 48.875 34.7533H54.125C54.8499 34.7533 55.4375 34.1657 55.4375 33.4408V28.1908C55.4375 27.4659 54.8499 26.8783 54.125 26.8783Z" fill="#009379"/>
<path opacity="0.2" d="M27.875 26.9408H33.125C33.8154 26.9408 34.375 27.5004 34.375 28.1908V33.4408C34.375 34.1312 33.8154 34.6908 33.125 34.6908H27.875C27.1846 34.6908 26.625 34.1312 26.625 33.4408V28.1908C26.625 27.5004 27.1846 26.9408 27.875 26.9408Z" fill="#009379" stroke="#009379" stroke-width="0.125"/>
<path opacity="0.2" d="M48.875 47.9408H54.125C54.8154 47.9408 55.375 48.5004 55.375 49.1908V54.4408C55.375 55.1312 54.8154 55.6908 54.125 55.6908H48.875C48.1846 55.6908 47.625 55.1312 47.625 54.4408V49.1908C47.625 48.5004 48.1846 47.9408 48.875 47.9408Z" fill="#009379" stroke="#009379" stroke-width="0.125"/>
<path opacity="0.2" d="M27.875 47.9408H33.125C33.8154 47.9408 34.375 48.5004 34.375 49.1908V54.4408C34.375 55.1312 33.8154 55.6908 33.125 55.6908H27.875C27.1846 55.6908 26.625 55.1312 26.625 54.4408V49.1908C26.625 48.5004 27.1846 47.9408 27.875 47.9408Z" fill="#009379" stroke="#009379" stroke-width="0.125"/>
<path d="M54.125 26.8783H48.875C48.1501 26.8783 47.5625 27.4659 47.5625 28.1908V33.4408C47.5625 34.1657 48.1501 34.7533 48.875 34.7533H54.125C54.8499 34.7533 55.4375 34.1657 55.4375 33.4408V28.1908C55.4375 27.4659 54.8499 26.8783 54.125 26.8783Z" stroke="#009379" stroke-width="2" stroke-linecap="round" stroke-linejoin="round"/>
<path d="M33.125 26.8783H27.875C27.1501 26.8783 26.5625 27.4659 26.5625 28.1908V33.4408C26.5625 34.1657 27.1501 34.7533 27.875 34.7533H33.125C33.8499 34.7533 34.4375 34.1657 34.4375 33.4408V28.1908C34.4375 27.4659 33.8499 26.8783 33.125 26.8783Z" stroke="#009379" stroke-width="2" stroke-linecap="round" stroke-linejoin="round"/>
<path d="M54.125 47.8783H48.875C48.1501 47.8783 47.5625 48.4659 47.5625 49.1908V54.4408C47.5625 55.1657 48.1501 55.7533 48.875 55.7533H54.125C54.8499 55.7533 55.4375 55.1657 55.4375 54.4408V49.1908C55.4375 48.4659 54.8499 47.8783 54.125 47.8783Z" stroke="#009379" stroke-width="2" stroke-linecap="round" stroke-linejoin="round"/>
<path d="M33.125 47.8783H27.875C27.1501 47.8783 26.5625 48.4659 26.5625 49.1908V54.4408C26.5625 55.1657 27.1501 55.7533 27.875 55.7533H33.125C33.8499 55.7533 34.4375 55.1657 34.4375 54.4408V49.1908C34.4375 48.4659 33.8499 47.8783 33.125 47.8783Z" stroke="#009379" stroke-width="2" stroke-linecap="round" stroke-linejoin="round"/>
<path d="M30.5 47.8783V34.7533" stroke="#009379" stroke-width="2" stroke-linecap="round" stroke-linejoin="round"/>
<path d="M47.5625 51.8158H34.4375" stroke="#009379" stroke-width="2" stroke-linecap="round" stroke-linejoin="round"/>
<path d="M51.5 34.7533V47.8783" stroke="#009379" stroke-width="2" stroke-linecap="round" stroke-linejoin="round"/>
<path d="M34.4375 30.8158H47.5625" stroke="#009379" stroke-width="2" stroke-linecap="round" stroke-linejoin="round"/>
</svg>
