<svg width="82" height="83" viewBox="0 0 82 83" fill="none" xmlns="http://www.w3.org/2000/svg">
<path d="M0 40.3158C0 21.4596 0 12.0315 5.85786 6.17366C11.7157 0.315796 21.1438 0.315796 40 0.315796H42C60.8562 0.315796 70.2843 0.315796 76.1421 6.17366C82 12.0315 82 21.4596 82 40.3158V42.3158C82 61.172 82 70.6001 76.1421 76.4579C70.2843 82.3158 60.8562 82.3158 42 82.3158H40C21.1438 82.3158 11.7157 82.3158 5.85786 76.4579C0 70.6001 0 61.172 0 42.3158V40.3158Z" fill="#F8D57E" fill-opacity="0.2"/>
<path opacity="0.2" d="M36.8 52.8658L29.45 45.5158L26.218 54.4244C26.1286 54.6582 26.1088 54.9128 26.1611 55.1575C26.2133 55.4023 26.3352 55.6267 26.5122 55.8037C26.6891 55.9806 26.9135 56.1026 27.1583 56.1548C27.403 56.207 27.6576 56.1872 27.8914 56.0978L36.8 52.8658Z" fill="#F8D57E"/>
<path opacity="0.2" d="M52.6207 45.1498L52.6208 45.15C52.7705 45.2983 52.8802 45.4821 52.9397 45.6842C52.9993 45.8863 53.0069 46.1001 52.9617 46.3059C52.9164 46.5117 52.82 46.7027 52.6812 46.8612C52.5423 47.0197 52.3657 47.1405 52.1677 47.2125L45.4786 49.6434L32.6723 36.8372L35.1033 30.1481C35.1752 29.95 35.2961 29.7734 35.4546 29.6346C35.6131 29.4958 35.8041 29.3993 36.0099 29.3541C36.2157 29.3089 36.4295 29.3165 36.6316 29.376C36.8337 29.4356 37.0174 29.5453 37.1658 29.6949L37.166 29.6951L52.6207 45.1498Z" fill="#F8D57E" stroke="#F8D57E" stroke-width="0.125"/>
<path d="M26.218 54.4244L35.0445 30.1267C35.1201 29.9188 35.247 29.7334 35.4134 29.5876C35.5798 29.4419 35.7804 29.3406 35.9965 29.2931C36.2125 29.2456 36.4371 29.2535 36.6493 29.3161C36.8615 29.3787 37.0544 29.4938 37.2102 29.6509L52.6648 45.1056C52.8219 45.2614 52.9371 45.4543 52.9997 45.6665C53.0622 45.8787 53.0702 46.1032 53.0227 46.3193C52.9752 46.5354 52.8739 46.7359 52.7282 46.9024C52.5824 47.0688 52.397 47.1957 52.1891 47.2712L27.8914 56.0978C27.6576 56.1872 27.403 56.2069 27.1583 56.1547C26.9135 56.1025 26.6891 55.9806 26.5122 55.8036C26.3352 55.6267 26.2133 55.4023 26.1611 55.1575C26.1088 54.9128 26.1286 54.6581 26.218 54.4244V54.4244Z" stroke="#F8D57E" stroke-width="2" stroke-linecap="round" stroke-linejoin="round"/>
<path d="M47.5625 32.1283C47.5625 32.1283 47.5625 28.1908 51.5 28.1908C55.4375 28.1908 55.4375 24.2533 55.4375 24.2533" stroke="#F8D57E" stroke-width="2" stroke-linecap="round" stroke-linejoin="round"/>
<path d="M36.8 52.8658L29.45 45.5158" stroke="#F8D57E" stroke-width="2" stroke-linecap="round" stroke-linejoin="round"/>
<path d="M43.625 22.9408V26.8783" stroke="#F8D57E" stroke-width="2" stroke-linecap="round" stroke-linejoin="round"/>
<path d="M55.4375 38.6908L58.0625 41.3158" stroke="#F8D57E" stroke-width="2" stroke-linecap="round" stroke-linejoin="round"/>
<path d="M55.4375 33.4408L59.375 32.1283" stroke="#F8D57E" stroke-width="2" stroke-linecap="round" stroke-linejoin="round"/>
<path d="M32.6 36.8533L45.4625 49.7158" stroke="#F8D57E" stroke-width="2" stroke-linecap="round" stroke-linejoin="round"/>
</svg>
