<svg width="90" height="20" viewBox="0 0 90 20" fill="none" xmlns="http://www.w3.org/2000/svg">
<g clip-path="url(#clip0_538_6453)">
<path d="M31.7682 11.615L31.2318 13.1316H31.1871C31.0977 12.7896 30.9338 12.2692 30.6656 11.6448L27.7897 4.43354H24.9735V15.9269H26.8361V8.83461C26.8361 8.38856 26.8361 7.88303 26.8212 7.25855C26.8063 6.94632 26.7765 6.70842 26.7616 6.53H26.8063C26.8957 6.97605 27 7.30316 27.0745 7.51132L30.5315 15.8971H31.8427L35.2699 7.43698C35.3444 7.24369 35.4189 6.85711 35.4934 6.53H35.5381C35.4934 7.3775 35.4636 8.13579 35.4487 8.59672V15.8823H37.4305V4.40381H34.7185L31.7682 11.615ZM39.3079 7.64513H41.245V15.8823H39.3079V7.64513ZM40.2914 4.16591C39.9636 4.16591 39.6954 4.28486 39.4719 4.49302C39.2483 4.70118 39.1291 4.96881 39.1291 5.29592C39.1291 5.60815 39.2483 5.87579 39.4719 6.08395C39.6954 6.2921 39.9636 6.39618 40.2914 6.39618C40.6192 6.39618 40.9023 6.27724 41.1109 6.08395C41.3344 5.87579 41.4536 5.60815 41.4536 5.29592C41.4536 4.98368 41.3344 4.71605 41.1109 4.49302C40.9172 4.28486 40.6341 4.16591 40.2914 4.16591ZM48.1142 7.57079C47.7566 7.49645 47.3841 7.45184 47.0265 7.45184C46.1474 7.45184 45.3427 7.64513 44.6722 8.03172C44.0017 8.4183 43.4652 8.95356 43.1225 9.62264C42.7649 10.3066 42.5861 11.0946 42.5861 12.0016C42.5861 12.7896 42.7649 13.4884 43.1076 14.1278C43.4503 14.7523 43.9272 15.2578 44.5679 15.5998C45.1788 15.9417 45.894 16.1202 46.6987 16.1202C47.6225 16.1202 48.4123 15.9269 49.0381 15.57L49.053 15.5552V13.7709L48.9785 13.8304C48.6954 14.0386 48.3675 14.217 48.0397 14.3211C47.697 14.44 47.3841 14.4995 47.1159 14.4995C46.3411 14.4995 45.7301 14.2765 45.298 13.7858C44.851 13.31 44.6275 12.6558 44.6275 11.838C44.6275 10.9905 44.851 10.3215 45.3129 9.8308C45.7748 9.34014 46.3858 9.08738 47.1308 9.08738C47.7566 9.08738 48.3974 9.29554 48.9785 9.71185L49.053 9.77133V7.88303L49.0381 7.86816C48.7848 7.76408 48.5017 7.64513 48.1142 7.57079ZM54.5066 7.51132C54.0298 7.51132 53.5828 7.66 53.1954 7.97224C52.8675 8.23987 52.644 8.62645 52.4503 9.08738H52.4354V7.64513H50.4983V15.8823H52.4354V11.6745C52.4354 10.9608 52.5844 10.3661 52.9123 9.93488C53.2401 9.48883 53.6573 9.2658 54.1639 9.2658C54.3427 9.2658 54.5215 9.3104 54.745 9.34014C54.9536 9.39961 55.1026 9.45909 55.207 9.53343L55.2815 9.5929V7.66L55.2368 7.64513C55.1026 7.55592 54.8344 7.51132 54.5066 7.51132ZM59.7815 7.46671C58.4255 7.46671 57.3377 7.86816 56.5778 8.65619C55.803 9.44422 55.4305 10.5296 55.4305 11.8975C55.4305 13.1762 55.8179 14.217 56.5629 14.9753C57.3079 15.7187 58.3212 16.1053 59.5877 16.1053C60.9139 16.1053 61.9719 15.7038 62.7318 14.9009C63.5066 14.0981 63.8791 13.0275 63.8791 11.7042C63.8791 10.3958 63.5215 9.35501 62.7914 8.59672C62.0911 7.83843 61.0629 7.46671 59.7815 7.46671ZM61.3311 13.8007C60.9735 14.2616 60.4073 14.4846 59.707 14.4846C59.0066 14.4846 58.4404 14.2616 58.0381 13.7709C57.6358 13.31 57.4421 12.6409 57.4421 11.7934C57.4421 10.9162 57.6507 10.2471 58.0381 9.77133C58.4404 9.29554 58.9917 9.05764 59.6921 9.05764C60.3775 9.05764 60.9139 9.28067 61.3013 9.74159C61.6887 10.2025 61.8974 10.8716 61.8974 11.7488C61.8675 12.6409 61.7036 13.3398 61.3311 13.8007ZM68.2003 11.0649C67.5894 10.8121 67.202 10.6188 67.0232 10.4553C66.8742 10.3066 66.7997 10.0984 66.7997 9.8308C66.7997 9.60777 66.8891 9.38475 67.1126 9.23606C67.3361 9.08738 67.5894 9.01303 67.9619 9.01303C68.2897 9.01303 68.6324 9.07251 68.9603 9.16172C69.2881 9.25093 69.5861 9.38475 69.8245 9.56317L69.899 9.62264V7.80869L69.8543 7.79382C69.6308 7.70461 69.3328 7.6154 68.9752 7.54106C68.6175 7.48158 68.2897 7.45184 68.0215 7.45184C67.0977 7.45184 66.3377 7.67487 65.7417 8.16553C65.1457 8.62645 64.8626 9.25093 64.8626 9.97948C64.8626 10.3661 64.9222 10.708 65.0563 10.9905C65.1904 11.273 65.3841 11.5407 65.6523 11.7637C65.9205 11.9719 66.3079 12.2098 66.8444 12.4328C67.2914 12.6261 67.6341 12.7748 67.8427 12.8937C68.0513 13.0127 68.1854 13.1465 68.2897 13.2505C68.3642 13.3695 68.4089 13.5182 68.4089 13.7115C68.4089 14.2616 67.9917 14.5292 67.1424 14.5292C66.8146 14.5292 66.4719 14.4698 66.0695 14.3359C65.6672 14.2021 65.2947 14.0088 64.9818 13.7858L64.9073 13.7263V15.6146L64.952 15.6295C65.2351 15.7633 65.5778 15.8525 65.995 15.9566C66.4123 16.031 66.7848 16.0904 67.1126 16.0904C68.1109 16.0904 68.9305 15.8674 69.5116 15.3767C70.1076 14.9009 70.4205 14.2913 70.4205 13.5033C70.4205 12.9532 70.2715 12.4625 69.9437 12.0908C69.5116 11.734 68.9752 11.3623 68.2003 11.0649ZM75.5315 7.46671C74.1755 7.46671 73.0877 7.86816 72.3278 8.65619C71.5679 9.44422 71.1805 10.5296 71.1805 11.8975C71.1805 13.1762 71.5679 14.217 72.3129 14.9753C73.0579 15.7187 74.0712 16.1053 75.3377 16.1053C76.6639 16.1053 77.7219 15.7038 78.4818 14.9009C79.2566 14.0981 79.6291 13.0275 79.6291 11.7042C79.6291 10.3958 79.2715 9.35501 78.5414 8.59672C77.8411 7.83843 76.8129 7.46671 75.5315 7.46671ZM77.0662 13.8007C76.7086 14.2616 76.1424 14.4846 75.4421 14.4846C74.7268 14.4846 74.1755 14.2616 73.7732 13.7709C73.3709 13.31 73.1772 12.6409 73.1772 11.7934C73.1772 10.9162 73.3858 10.2471 73.7732 9.77133C74.1755 9.29554 74.7268 9.05764 75.4272 9.05764C76.0977 9.05764 76.649 9.28067 77.0364 9.74159C77.4238 10.2025 77.6325 10.8716 77.6325 11.7488C77.6325 12.6409 77.4387 13.3398 77.0662 13.8007ZM89.9851 9.23606V7.64513H88.0331V5.20671L87.9735 5.22157L86.1258 5.77171L86.0811 5.78658V7.64513H83.1606V6.60434C83.1606 6.12855 83.2798 5.75684 83.4884 5.51894C83.697 5.28105 84.0099 5.1621 84.3974 5.1621C84.6656 5.1621 84.9487 5.22157 85.2616 5.35539L85.3361 5.4V3.71986L85.2914 3.70499C85.0232 3.61578 84.6656 3.5563 84.2036 3.5563C83.6225 3.5563 83.1159 3.69012 82.654 3.91315C82.1921 4.16591 81.8493 4.50789 81.596 4.96881C81.3427 5.41486 81.2086 5.92039 81.2086 6.50026V7.64513H79.8527V9.22119H81.2086V15.8823H83.1606V9.23606H86.0811V13.4736C86.0811 15.2132 86.9007 16.0904 88.5397 16.0904C88.8079 16.0904 89.0911 16.0458 89.3593 16.0012C89.6424 15.9417 89.851 15.8674 89.9702 15.8079L89.9851 15.7931V14.2021L89.9106 14.2616C89.7914 14.3359 89.6871 14.3954 89.5083 14.44C89.3593 14.4846 89.2252 14.4995 89.1209 14.4995C88.7334 14.4995 88.4652 14.4103 88.2715 14.1873C88.0927 13.9791 88.0033 13.6371 88.0033 13.1316V9.23606H89.9851Z" fill="#737373"/>
<path d="M0 0.567749H9.13411V9.68212H0V0.567749Z" fill="#F25022"/>
<path d="M10.0876 0.567749H19.2218V9.68212H10.0876V0.567749Z" fill="#7FBA00"/>
<path d="M0 10.6337H9.13411V19.7481H0V10.6337Z" fill="#00A4EF"/>
<path d="M10.0876 10.6337H19.2218V19.7481H10.0876V10.6337Z" fill="#FFB900"/>
</g>
<defs>
<clipPath id="clip0_538_6453">
<rect width="90" height="19.1803" fill="white" transform="translate(0 0.567749)"/>
</clipPath>
</defs>
</svg>
